<svg width="24" height="24" viewBox="0 0 24 24" fill="none" xmlns="http://www.w3.org/2000/svg">
<path d="M22.5852 17.011C22.1552 17.554 21.1022 17.941 21.1022 17.941L13.2703 20.758V18.68L19.0343 16.623C19.6883 16.389 19.7882 16.057 19.2572 15.883C18.7262 15.709 17.7653 15.758 17.1103 15.994L13.2703 17.348V15.193L13.4913 15.117C13.4913 15.117 14.6012 14.724 16.1612 14.551C17.7222 14.379 19.6332 14.575 21.1332 15.144C22.8232 15.679 23.0132 16.468 22.5852 17.011ZM14.0153 13.473V8.162C14.0153 7.538 13.9002 6.964 13.3152 6.802C12.8682 6.658 12.5903 7.074 12.5903 7.697V21L9.00725 19.861V4C10.5302 4.283 12.7502 4.953 13.9432 5.355C16.9782 6.398 18.0072 7.697 18.0072 10.622C18.0072 13.473 16.2493 14.554 14.0153 13.474M2.43225 18.464C0.69625 17.974 0.40725 16.954 1.19825 16.367C1.92925 15.825 3.17325 15.417 3.17325 15.417L8.31125 13.587V15.673L4.61325 16.998C3.96025 17.232 3.86025 17.564 4.39025 17.738C4.92225 17.913 5.88325 17.863 6.53725 17.628L8.31125 16.984V18.849L7.95725 18.909C6.18325 19.199 4.29425 19.078 2.43225 18.464Z" fill="#C2C7CB"/>
</svg>
