<svg width="25" height="25" viewBox="0 0 25 25" fill="none" xmlns="http://www.w3.org/2000/svg">
<mask id="mask0_34_25" style="mask-type:alpha" maskUnits="userSpaceOnUse" x="0" y="0" width="25" height="25">
<rect x="0.209473" y="0.308716" width="24" height="24" fill="#D9D9D9"/>
</mask>
<g mask="url(#mask0_34_25)">
<path fill-rule="evenodd" clip-rule="evenodd" d="M6.05947 17.4087C6.90947 16.7587 7.85947 16.2462 8.90947 15.8712C9.95947 15.4962 11.0595 15.3087 12.2095 15.3087C13.3595 15.3087 14.4595 15.4962 15.5095 15.8712C16.5595 16.2462 17.5095 16.7587 18.3595 17.4087C18.9428 16.7254 19.397 15.9504 19.722 15.0837C20.047 14.217 20.2095 13.292 20.2095 12.3087C20.2095 10.092 19.4303 8.20455 17.872 6.64622C16.3136 5.08788 14.4261 4.30872 12.2095 4.30872C9.99281 4.30872 8.10531 5.08788 6.54697 6.64622C4.98864 8.20455 4.20947 10.092 4.20947 12.3087C4.20947 13.292 4.37197 14.217 4.69697 15.0837C5.02197 15.9504 5.47614 16.7254 6.05947 17.4087ZM9.72197 12.2962C10.397 12.9712 11.2261 13.3087 12.2095 13.3087C13.1928 13.3087 14.022 12.9712 14.697 12.2962C15.372 11.6212 15.7095 10.792 15.7095 9.80872C15.7095 8.82538 15.372 7.99622 14.697 7.32122C14.022 6.64622 13.1928 6.30872 12.2095 6.30872C11.2261 6.30872 10.397 6.64622 9.72197 7.32122C9.04697 7.99622 8.70947 8.82538 8.70947 9.80872C8.70947 10.792 9.04697 11.6212 9.72197 12.2962Z" fill="white"/>
<path fill-rule="evenodd" clip-rule="evenodd" d="M18.3595 17.4087C17.9793 17.8754 17.1471 18.8087 16.8595 18.8087C16.2095 19.292 15.4928 19.6629 14.7095 19.9212C13.9261 20.1796 13.0928 20.3087 12.2095 20.3087C11.3261 20.3087 10.4928 20.1796 9.70947 19.9212C8.92614 19.6629 8.20947 19.292 7.55947 18.8087C7.16794 18.4783 6.3198 17.7357 6.05947 17.4087C5.47614 16.7254 5.02197 15.9504 4.69697 15.0837C4.37197 14.217 4.20947 13.292 4.20947 12.3087C4.20947 10.092 4.98864 8.20455 6.54697 6.64622C8.10531 5.08788 9.99281 4.30872 12.2095 4.30872C14.4261 4.30872 16.3136 5.08788 17.872 6.64622C19.4303 8.20455 20.2095 10.092 20.2095 12.3087C20.2095 13.292 20.047 14.217 19.722 15.0837C19.397 15.9504 18.9428 16.7254 18.3595 17.4087ZM12.2095 22.3087C10.8261 22.3087 9.52614 22.0462 8.30947 21.5212C7.09281 20.9962 6.03447 20.2837 5.13447 19.3837C4.23447 18.4837 3.52197 17.4254 2.99697 16.2087C2.47197 14.992 2.20947 13.692 2.20947 12.3087C2.20947 10.9254 2.47197 9.62538 2.99697 8.40872C3.52197 7.19205 4.23447 6.13372 5.13447 5.23372C6.03447 4.33372 7.09281 3.62122 8.30947 3.09622C9.52614 2.57122 10.8261 2.30872 12.2095 2.30872C13.5928 2.30872 14.8928 2.57122 16.1095 3.09622C17.3261 3.62122 18.3845 4.33372 19.2845 5.23372C20.1845 6.13372 20.897 7.19205 21.422 8.40872C21.947 9.62538 22.2095 10.9254 22.2095 12.3087C22.2095 13.692 21.947 14.992 21.422 16.2087C20.897 17.4254 20.1845 18.4837 19.2845 19.3837C18.3845 20.2837 17.3261 20.9962 16.1095 21.5212C14.8928 22.0462 13.5928 22.3087 12.2095 22.3087Z" fill="white"/>
</g>
</svg>
