<svg width="24" height="24" viewBox="0 0 24 24" fill="none" xmlns="http://www.w3.org/2000/svg">
<path d="M12 9.23501C14.907 12.181 16.956 15.635 18.668 19.452C16.8365 21.096 14.4612 22.0037 12 22C9.53888 22.0037 7.16353 21.096 5.33202 19.452C7.04402 15.635 9.09202 12.181 12 9.23501ZM5.50902 4.39301C7.30839 5.36315 8.99612 6.52742 10.542 7.86501C7.65602 10.799 5.58202 14.179 3.87502 17.831C2.65244 16.1328 1.99634 14.0925 2.00002 12C1.99868 10.5535 2.31181 9.124 2.9177 7.8105C3.5236 6.49701 4.40779 5.33092 5.50902 4.39301ZM18.491 4.39301C19.5922 5.33092 20.4764 6.49701 21.0823 7.8105C21.6882 9.124 22.0013 10.5535 22 12C22 14.176 21.305 16.19 20.125 17.83C18.418 14.179 16.344 10.8 13.458 7.86501C15.0039 6.52742 16.6916 5.36315 18.491 4.39301ZM12 2.00001C13.675 2.00001 15.254 2.41201 16.641 3.14001C14.9894 4.10139 13.4351 5.22098 12 6.48301C10.5649 5.22098 9.01065 4.10139 7.35902 3.14001C8.79058 2.389 10.3834 1.99774 12 2.00001Z" fill="#C2C7CB"/>
</svg>
